<svg xmlns="http://www.w3.org/2000/svg" viewBox="0 0 512 512">
  <defs>
    <linearGradient id="bg" x1="0" x2="1" y1="0" y2="1">
      <stop offset="0%" stop-color="#f9fcff"/>
      <stop offset="55%" stop-color="#e5f1ff"/>
      <stop offset="100%" stop-color="#d8ebff"/>
    </linearGradient>
    <linearGradient id="thread" x1="0" x2="1" y1="0" y2="1">
      <stop offset="0%" stop-color="#5adfca"/>
      <stop offset="100%" stop-color="#1bb6a0"/>
    </linearGradient>
  </defs>
  <rect width="512" height="512" rx="132" fill="url(#bg)"/>
  <circle cx="256" cy="256" r="164" fill="none" stroke="#7ba9e7" stroke-opacity=".28" stroke-width="10"/>
  <path d="M152 240c0-57.4 46.6-104 104-104h52c28.7 0 52 23.3 52 52s-23.3 52-52 52H228c-28.7 0-52 23.3-52 52s23.3 52 52 52h132" fill="none" stroke="url(#thread)" stroke-linecap="round" stroke-width="36"/>
  <circle cx="308" cy="188" r="42" fill="#ffffff" stroke="#72b9f2" stroke-width="18"/>
  <circle cx="228" cy="292" r="42" fill="#ffffff" stroke="#72b9f2" stroke-width="18"/>
  <path d="M360 344c0 26.5-21.5 48-48 48s-48-21.5-48-48 21.5-48 48-48 48 21.5 48 48Z" fill="#ffffff" stroke="#1bb6a0" stroke-width="18"/>
  <path d="M128 160c20-18.7 42.9-28 68.8-28" fill="none" stroke="#ffffff" stroke-opacity=".85" stroke-linecap="round" stroke-width="12"/>
</svg>
