<svg xmlns="http://www.w3.org/2000/svg" viewBox="0 0 512 512">
  <defs>
    <linearGradient id="bg" x1="0" x2="1" y1="0" y2="1">
      <stop offset="0%" stop-color="#f7fbff"/>
      <stop offset="100%" stop-color="#dceeff"/>
    </linearGradient>
    <linearGradient id="thread" x1="0" x2="1" y1="0" y2="1">
      <stop offset="0%" stop-color="#75ead8"/>
      <stop offset="100%" stop-color="#1bb6a0"/>
    </linearGradient>
  </defs>
  <rect width="512" height="512" fill="url(#bg)"/>
  <g transform="translate(46 46)">
    <rect x="0" y="0" width="420" height="420" rx="132" fill="rgba(255,255,255,.35)"/>
    <circle cx="210" cy="210" r="150" fill="none" stroke="#8ab6ea" stroke-opacity=".25" stroke-width="10"/>
    <path d="M120 194c0-52.5 42.5-95 95-95h48c26.2 0 47.5 21.3 47.5 47.5S289.2 194 263 194h-72c-26.2 0-47.5 21.3-47.5 47.5S164.8 289 191 289h121" fill="none" stroke="url(#thread)" stroke-linecap="round" stroke-width="34"/>
    <circle cx="263" cy="146.5" r="38" fill="#ffffff" stroke="#72b9f2" stroke-width="16"/>
    <circle cx="191" cy="241.5" r="38" fill="#ffffff" stroke="#72b9f2" stroke-width="16"/>
    <circle cx="267" cy="289" r="44" fill="#ffffff" stroke="#1bb6a0" stroke-width="16"/>
  </g>
</svg>
